# xmcd
#
# Track frame offsets:
#	225
#	19329
#	35398
#	51325
#	67165
#	86056
#	100689
#	118747
#	136874
#	153182
#
# Disc length: 2194 seconds
#
# Revision: 1
# Processed by: cddbd v1.5.2PL0 Copyright (c) Steve Scherf et al.
# Submitted via: EasyCDDAExtractor 12.0.0.1
#
DISCID=84088f0a
DTITLE=Jean Luc Leroux - De Nashville ... à Nouméa
DYEAR=2009
DGENRE=Country
TTITLE0=Le week end caldo
TTITLE1=J'l'avais dit
TTITLE2=La vie du stock
TTITLE3=De Nashville à Nouméa
TTITLE4=L'escale
TTITLE5=Le mont Cervin
TTITLE6=Bien ou mal
TTITLE7=La berceuse du lagon
TTITLE8=Dis moi
TTITLE9=Vagabondage
EXTD=
EXTT0=
EXTT1=
EXTT2=
EXTT3=
EXTT4=
EXTT5=
EXTT6=
EXTT7=
EXTT8=
EXTT9=
PLAYORDER=
